
<svg width="11px" height="16px" viewBox="0 0 11 16" version="1.1" xmlns="http://www.w3.org/2000/svg" xmlns:xlink="http://www.w3.org/1999/xlink">
    <g id="Page-1" stroke="none" stroke-width="1" fill="none" fill-rule="evenodd" opacity="0.560000002" stroke-linecap="round" stroke-linejoin="round">
        <g id="Day-71" transform="translate(-654.000000, -488.000000)" stroke="#2D354C" stroke-width="1.23152709">
            <g id="Group-11" transform="translate(450.000000, 40.000000)">
                <g id="mic">
                    <g transform="translate(205.049261, 449.507389)">
                        <path d="M4.31034483,1.26960761e-16 C3.29011438,-1.26960761e-16 2.46305419,0.767984463 2.46305419,1.71534131 L2.46305419,6.2895848 C2.46305419,7.23694165 3.29011438,8.00492611 4.31034483,8.00492611 C5.33057528,8.00492611 6.15763547,7.23694165 6.15763547,6.2895848 L6.15763547,1.71534131 C6.15763547,0.767984463 5.33057528,1.26960761e-16 4.31034483,1.26960761e-16 Z" id="Shape"></path>
                        <path d="M8.62068966,4.92610837 L8.62068966,6.15763547 C8.62068962,8.53817316 6.69088252,10.4679802 4.31034483,10.4679802 C1.92980714,10.4679802 3.54727746e-08,8.53817316 -1.77635684e-15,6.15763547 L-1.77635684e-15,4.92610837" id="Shape"></path>
                        <path d="M4.31034483,10.4679803 L4.31034483,12.9310345" id="Shape"></path>
                        <path d="M1.84729064,12.9310345 L6.77339901,12.9310345" id="Shape"></path>
                    </g>
                </g>
            </g>
        </g>
    </g>
</svg>